<mxfile host="app.diagrams.net" modified="2023-05-23T06:14:59.923Z" agent="Mozilla/5.0 (Windows NT 10.0; Win64; x64) AppleWebKit/537.36 (KHTML, like Gecko) Chrome/113.0.0.0 Safari/537.36" etag="3a9vjl4GuvSw8oQSwW-r" version="21.3.2" type="github">
  <diagram name="Page-1" id="C_Ee6mt2KtoBWOqvQohK">
    <mxGraphModel dx="1434" dy="764" grid="1" gridSize="10" guides="1" tooltips="1" connect="1" arrows="1" fold="1" page="1" pageScale="1" pageWidth="850" pageHeight="1100" math="0" shadow="0">
      <root>
        <mxCell id="0" />
        <mxCell id="1" parent="0" />
        <mxCell id="BUpmYRirLnpVpm6g7s5F-1" value="" style="rounded=0;whiteSpace=wrap;html=1;" vertex="1" parent="1">
          <mxGeometry x="110" y="150" width="470" height="300" as="geometry" />
        </mxCell>
        <mxCell id="BUpmYRirLnpVpm6g7s5F-2" value="" style="rounded=1;whiteSpace=wrap;html=1;" vertex="1" parent="1">
          <mxGeometry x="360" y="200" width="189" height="90" as="geometry" />
        </mxCell>
        <mxCell id="BUpmYRirLnpVpm6g7s5F-3" value="" style="endArrow=none;html=1;rounded=0;entryX=1;entryY=0.5;entryDx=0;entryDy=0;exitX=0;exitY=0.5;exitDx=0;exitDy=0;" edge="1" parent="1" source="BUpmYRirLnpVpm6g7s5F-2" target="BUpmYRirLnpVpm6g7s5F-2">
          <mxGeometry width="50" height="50" relative="1" as="geometry">
            <mxPoint x="400" y="420" as="sourcePoint" />
            <mxPoint x="450" y="370" as="targetPoint" />
          </mxGeometry>
        </mxCell>
        <mxCell id="BUpmYRirLnpVpm6g7s5F-4" value="" style="endArrow=none;html=1;rounded=0;exitX=0;exitY=0.75;exitDx=0;exitDy=0;entryX=1;entryY=0.75;entryDx=0;entryDy=0;" edge="1" parent="1" source="BUpmYRirLnpVpm6g7s5F-1" target="BUpmYRirLnpVpm6g7s5F-1">
          <mxGeometry width="50" height="50" relative="1" as="geometry">
            <mxPoint x="400" y="420" as="sourcePoint" />
            <mxPoint x="450" y="370" as="targetPoint" />
          </mxGeometry>
        </mxCell>
        <mxCell id="BUpmYRirLnpVpm6g7s5F-5" value="物理机用户空间" style="text;html=1;strokeColor=none;fillColor=none;align=center;verticalAlign=middle;whiteSpace=wrap;rounded=0;rotation=90;" vertex="1" parent="1">
          <mxGeometry x="560" y="239" width="90" height="30" as="geometry" />
        </mxCell>
        <mxCell id="BUpmYRirLnpVpm6g7s5F-6" value="虚机2" style="text;html=1;strokeColor=none;fillColor=none;align=center;verticalAlign=middle;whiteSpace=wrap;rounded=0;" vertex="1" parent="1">
          <mxGeometry x="428" y="170" width="60" height="30" as="geometry" />
        </mxCell>
        <mxCell id="BUpmYRirLnpVpm6g7s5F-7" value="虚机用户空间" style="text;html=1;strokeColor=none;fillColor=none;align=center;verticalAlign=middle;whiteSpace=wrap;rounded=0;" vertex="1" parent="1">
          <mxGeometry x="460" y="209" width="80" height="30" as="geometry" />
        </mxCell>
        <mxCell id="BUpmYRirLnpVpm6g7s5F-8" value="虚机内核空间" style="text;html=1;strokeColor=none;fillColor=none;align=center;verticalAlign=middle;whiteSpace=wrap;rounded=0;" vertex="1" parent="1">
          <mxGeometry x="460" y="252" width="80" height="30" as="geometry" />
        </mxCell>
        <mxCell id="BUpmYRirLnpVpm6g7s5F-9" value="" style="rounded=1;whiteSpace=wrap;html=1;" vertex="1" parent="1">
          <mxGeometry x="138" y="198" width="189" height="90" as="geometry" />
        </mxCell>
        <mxCell id="BUpmYRirLnpVpm6g7s5F-10" value="虚机1" style="text;html=1;strokeColor=none;fillColor=none;align=center;verticalAlign=middle;whiteSpace=wrap;rounded=0;" vertex="1" parent="1">
          <mxGeometry x="206" y="168" width="60" height="30" as="geometry" />
        </mxCell>
        <mxCell id="BUpmYRirLnpVpm6g7s5F-11" value="虚机用户空间" style="text;html=1;strokeColor=none;fillColor=none;align=center;verticalAlign=middle;whiteSpace=wrap;rounded=0;" vertex="1" parent="1">
          <mxGeometry x="238" y="207" width="80" height="30" as="geometry" />
        </mxCell>
        <mxCell id="BUpmYRirLnpVpm6g7s5F-12" value="虚机内核空间" style="text;html=1;strokeColor=none;fillColor=none;align=center;verticalAlign=middle;whiteSpace=wrap;rounded=0;" vertex="1" parent="1">
          <mxGeometry x="238" y="248" width="80" height="30" as="geometry" />
        </mxCell>
        <mxCell id="BUpmYRirLnpVpm6g7s5F-13" value="virtio(前端)" style="rounded=0;whiteSpace=wrap;html=1;" vertex="1" parent="1">
          <mxGeometry x="146" y="252" width="84" height="20" as="geometry" />
        </mxCell>
        <mxCell id="BUpmYRirLnpVpm6g7s5F-14" value="" style="endArrow=none;html=1;rounded=0;exitX=0;exitY=0.5;exitDx=0;exitDy=0;entryX=1;entryY=0.5;entryDx=0;entryDy=0;" edge="1" parent="1" source="BUpmYRirLnpVpm6g7s5F-9" target="BUpmYRirLnpVpm6g7s5F-9">
          <mxGeometry width="50" height="50" relative="1" as="geometry">
            <mxPoint x="400" y="420" as="sourcePoint" />
            <mxPoint x="450" y="370" as="targetPoint" />
          </mxGeometry>
        </mxCell>
        <mxCell id="BUpmYRirLnpVpm6g7s5F-15" value="virtio(前端)" style="rounded=0;whiteSpace=wrap;html=1;" vertex="1" parent="1">
          <mxGeometry x="370" y="256" width="84" height="20" as="geometry" />
        </mxCell>
        <mxCell id="BUpmYRirLnpVpm6g7s5F-16" value="APP1" style="rounded=1;whiteSpace=wrap;html=1;" vertex="1" parent="1">
          <mxGeometry x="144" y="212" width="40" height="20" as="geometry" />
        </mxCell>
        <mxCell id="BUpmYRirLnpVpm6g7s5F-17" value="APP2" style="rounded=1;whiteSpace=wrap;html=1;" vertex="1" parent="1">
          <mxGeometry x="195" y="212" width="40" height="20" as="geometry" />
        </mxCell>
        <mxCell id="BUpmYRirLnpVpm6g7s5F-18" value="APP1" style="rounded=1;whiteSpace=wrap;html=1;" vertex="1" parent="1">
          <mxGeometry x="368" y="213" width="40" height="20" as="geometry" />
        </mxCell>
        <mxCell id="BUpmYRirLnpVpm6g7s5F-19" value="APP2" style="rounded=1;whiteSpace=wrap;html=1;" vertex="1" parent="1">
          <mxGeometry x="419" y="213" width="40" height="20" as="geometry" />
        </mxCell>
        <mxCell id="BUpmYRirLnpVpm6g7s5F-20" value="vhost kernel backend&lt;br&gt;(vhost scsi)" style="rounded=0;whiteSpace=wrap;html=1;" vertex="1" parent="1">
          <mxGeometry x="127" y="390" width="120" height="40" as="geometry" />
        </mxCell>
        <mxCell id="BUpmYRirLnpVpm6g7s5F-21" value="vhost user backend&lt;br&gt;(librbd)" style="rounded=0;whiteSpace=wrap;html=1;" vertex="1" parent="1">
          <mxGeometry x="352" y="324" width="120" height="40" as="geometry" />
        </mxCell>
        <mxCell id="BUpmYRirLnpVpm6g7s5F-22" value="" style="shape=flexArrow;endArrow=classic;startArrow=classic;html=1;rounded=0;entryX=0.5;entryY=1;entryDx=0;entryDy=0;exitX=0.5;exitY=0;exitDx=0;exitDy=0;" edge="1" parent="1" source="BUpmYRirLnpVpm6g7s5F-20" target="BUpmYRirLnpVpm6g7s5F-13">
          <mxGeometry width="100" height="100" relative="1" as="geometry">
            <mxPoint x="370" y="440" as="sourcePoint" />
            <mxPoint x="470" y="340" as="targetPoint" />
          </mxGeometry>
        </mxCell>
        <mxCell id="BUpmYRirLnpVpm6g7s5F-23" value="" style="shape=flexArrow;endArrow=classic;startArrow=classic;html=1;rounded=0;exitX=0.5;exitY=0;exitDx=0;exitDy=0;" edge="1" parent="1" source="BUpmYRirLnpVpm6g7s5F-21" target="BUpmYRirLnpVpm6g7s5F-15">
          <mxGeometry width="100" height="100" relative="1" as="geometry">
            <mxPoint x="370" y="440" as="sourcePoint" />
            <mxPoint x="470" y="340" as="targetPoint" />
          </mxGeometry>
        </mxCell>
        <mxCell id="BUpmYRirLnpVpm6g7s5F-24" value="vring queue" style="text;html=1;strokeColor=none;fillColor=none;align=center;verticalAlign=middle;whiteSpace=wrap;rounded=0;rotation=90;" vertex="1" parent="1">
          <mxGeometry x="160" y="320" width="80" height="30" as="geometry" />
        </mxCell>
        <mxCell id="BUpmYRirLnpVpm6g7s5F-25" value="vring queue" style="text;html=1;strokeColor=none;fillColor=none;align=center;verticalAlign=middle;whiteSpace=wrap;rounded=0;" vertex="1" parent="1">
          <mxGeometry x="414.5" y="290" width="80" height="30" as="geometry" />
        </mxCell>
        <mxCell id="BUpmYRirLnpVpm6g7s5F-26" value="物理机" style="text;html=1;strokeColor=none;fillColor=none;align=center;verticalAlign=middle;whiteSpace=wrap;rounded=0;" vertex="1" parent="1">
          <mxGeometry x="530" y="150" width="60" height="30" as="geometry" />
        </mxCell>
        <mxCell id="BUpmYRirLnpVpm6g7s5F-27" value="物理机内核空间" style="text;html=1;strokeColor=none;fillColor=none;align=center;verticalAlign=middle;whiteSpace=wrap;rounded=0;rotation=90;" vertex="1" parent="1">
          <mxGeometry x="559" y="400" width="90" height="30" as="geometry" />
        </mxCell>
        <mxCell id="BUpmYRirLnpVpm6g7s5F-66" value="缓存空间" style="rounded=1;whiteSpace=wrap;html=1;" vertex="1" parent="1">
          <mxGeometry x="440" y="340" width="81" height="30" as="geometry" />
        </mxCell>
        <mxCell id="BUpmYRirLnpVpm6g7s5F-67" value="缓存空间" style="rounded=1;whiteSpace=wrap;html=1;" vertex="1" parent="1">
          <mxGeometry x="220" y="410" width="81" height="30" as="geometry" />
        </mxCell>
      </root>
    </mxGraphModel>
  </diagram>
</mxfile>
